<svg width="1338" height="282" viewBox="0 0 1338 282" fill="none" xmlns="http://www.w3.org/2000/svg">
<path d="M171.539 153.114C163.157 149.998 154.447 148.484 144.918 148.484C126.84 148.484 108.67 154.091 91.098 159.514C73.9017 164.819 56.1173 170.305 38.8316 170.308C38.829 170.308 38.8264 170.308 38.8238 170.308C26.0794 170.308 14.6606 167.357 3.91913 161.283C3.10538 160.826 2.10788 160.834 1.30462 161.304C0.496125 161.774 0 162.638 0 163.572V242.322C0 243.267 0.509251 244.141 1.3335 244.609C12.8861 251.134 25.1528 254.308 38.8316 254.308C56.9074 254.308 75.0803 248.701 92.6494 243.28C109.848 237.973 127.635 232.484 144.918 232.484C153.815 232.484 161.921 233.891 169.709 236.786C170.512 237.085 171.413 236.97 172.121 236.482C172.83 235.988 173.25 235.185 173.25 234.326V155.576C173.25 154.477 172.568 153.495 171.539 153.114ZM168 230.651C160.703 228.355 153.114 227.234 144.918 227.234C126.84 227.234 108.67 232.841 91.1033 238.264C73.9043 243.569 56.1173 249.058 38.8316 249.058C26.607 249.058 15.6056 246.346 5.25 240.771V167.927C15.6555 173.056 26.6831 175.558 38.8238 175.558C38.8238 175.558 38.829 175.558 38.8343 175.558C56.91 175.555 75.0777 169.948 92.6468 164.53C109.846 159.223 127.635 153.734 144.921 153.734C153.166 153.734 160.734 154.944 168.003 157.424V230.651H168Z" fill="#343434"/>
<path d="M128.622 162.994C128.622 164.441 129.804 165.428 131.247 165.228C137.482 164.365 143.719 164.005 149.948 164.388C150.431 166.26 151.394 167.972 152.702 169.405C154.006 170.841 155.655 172.001 157.5 172.778C157.5 185.244 157.5 197.713 157.5 210.179C155.657 210.352 154.006 211.124 152.702 212.305C151.394 213.489 150.428 215.075 149.948 216.888C143.714 216.505 137.482 216.873 131.247 217.731C129.804 217.928 128.625 219.303 128.622 220.745V220.747C128.622 222.194 129.804 223.175 131.247 222.978C138.246 222.007 145.241 221.674 152.242 222.312C153.694 222.446 154.87 221.424 154.87 219.97C154.87 218.524 155.46 217.282 156.413 216.471C157.366 215.657 158.679 215.282 160.125 215.573C161.577 215.865 162.75 214.983 162.75 213.534C162.75 199.537 162.75 185.543 162.75 171.549C162.75 170.103 161.577 168.63 160.125 168.339C158.676 168.045 157.366 167.239 156.413 166.147C155.46 165.052 154.87 163.669 154.87 162.22C154.87 160.774 153.691 159.44 152.242 159.312C145.241 158.674 138.243 159.01 131.247 159.981C129.804 160.181 128.625 161.551 128.622 162.994Z" fill="#343434"/>
<path d="M42 180.753C35.0018 181.002 28.0035 180.451 21.0053 178.752C19.5536 178.403 18.3803 179.238 18.3803 180.687C18.3803 182.133 17.7844 183.283 16.8341 183.942C15.8813 184.598 14.5688 184.764 13.1198 184.223C11.6708 183.687 10.4948 184.365 10.4948 185.811C10.4948 199.805 10.4948 213.802 10.4948 227.795C10.4948 229.244 11.6734 230.919 13.1198 231.457C14.5661 231.995 15.8813 233.024 16.8341 234.263C17.787 235.51 18.3803 236.986 18.3803 238.435C18.3803 239.884 19.5536 241.401 21.0053 241.75C28.0035 243.446 35.0018 243.997 42 243.748C43.4438 243.698 44.6224 242.435 44.6224 240.994C44.6224 240.994 44.6224 240.994 44.6224 240.991C44.625 239.548 43.4411 238.448 42 238.5C35.7656 238.723 29.5339 238.306 23.2969 237.017C22.8218 235.077 21.8558 233.221 20.5485 231.591C19.2413 229.961 17.5928 228.541 15.7474 227.462C15.7474 214.993 15.7474 202.527 15.7474 190.061C17.5928 190.187 19.2413 189.672 20.5485 188.693C21.8558 187.714 22.8218 186.26 23.2969 184.52C29.5313 185.811 35.7656 186.223 42 186C43.4438 185.95 44.625 184.69 44.625 183.246C44.625 183.246 44.625 183.246 44.625 183.244C44.6276 181.8 43.4411 180.7 42 180.753Z" fill="#343434"/>
<path d="M95.0014 170.148C92.0194 170.148 88.9324 170.646 85.8244 171.633C68.3235 177.225 55.125 193.92 55.125 210.473C55.125 217.521 57.4823 223.947 61.7715 228.572C66.0949 233.232 72.1062 235.801 78.7002 235.801C81.5483 235.801 84.483 235.324 87.4178 234.389C104.635 228.911 118.125 211.426 118.125 194.586C118.122 180.196 108.615 170.148 95.0014 170.148ZM85.827 229.383C83.4068 230.158 81.0102 230.549 78.7028 230.549C73.5867 230.549 68.9404 228.577 65.625 225C62.2388 221.351 60.375 216.193 60.3777 210.473C60.3777 196.342 72.2584 181.48 87.423 176.637C90.0113 175.815 92.5628 175.395 95.004 175.395C105.693 175.395 112.875 183.107 112.878 194.586C112.875 209.029 100.742 224.64 85.827 229.383Z" fill="#343434"/>
<path d="M91.5653 180.839C90.5547 180.839 89.5178 181.002 88.4783 181.322C85.8612 182.128 83.2467 182.926 80.6322 183.7C80.577 183.716 80.535 183.756 80.4773 183.774C80.3697 183.813 80.2725 183.868 80.1728 183.921C79.989 184.018 79.8237 184.126 79.6714 184.26C79.5874 184.336 79.5087 184.409 79.4352 184.493C79.2934 184.653 79.1805 184.827 79.0808 185.016C79.0335 185.105 78.9784 185.184 78.9417 185.281C78.8288 185.575 78.7527 185.887 78.7527 186.218V202.595C76.7734 203.173 74.7915 203.771 72.8123 204.309C71.4132 204.69 70.5863 206.131 70.9669 207.533C71.2845 208.698 72.3424 209.467 73.4974 209.467C73.7258 209.467 73.9568 209.436 74.1878 209.376C75.7077 208.963 77.2302 208.494 78.7527 208.058V210.473C76.7682 211.053 74.781 211.644 72.8123 212.179C71.4132 212.56 70.5863 214.001 70.9669 215.403C71.2845 216.568 72.3424 217.337 73.4974 217.337C73.7232 217.337 73.9568 217.306 74.1878 217.245C75.705 216.833 77.2302 216.374 78.7527 215.935V219.852C78.7527 221.301 79.9287 222.477 81.3777 222.477C82.8293 222.477 84.0027 221.301 84.0027 219.852V214.418C86.9453 213.534 89.8722 212.633 92.7492 211.743L95.2692 210.966C96.6552 210.538 97.4322 209.068 97.0069 207.685C96.579 206.299 95.109 205.53 93.7257 205.947L91.1978 206.727C88.83 207.457 86.415 208.197 84 208.929V206.541C84.252 206.464 84.504 206.399 84.756 206.323C84.777 206.317 84.7902 206.299 84.8112 206.294C86.5489 205.771 88.284 205.249 90.0244 204.711C95.4818 203.026 99.7579 197.398 99.7579 191.893V189.284C99.7579 184.393 96.3113 180.839 91.5653 180.839ZM94.5079 191.896C94.5079 195.059 91.6913 198.708 88.4809 199.697C86.9873 200.157 85.4937 200.616 84.0027 201.065V188.173C86.0108 187.572 88.0163 186.955 90.027 186.339C92.6074 185.554 94.5105 186.759 94.5105 189.286V191.896H94.5079Z" fill="#343434"/>
<path d="M182.414 147.683C151.678 130.319 120.882 139.821 91.1038 149.011C61.058 158.285 32.6817 167.042 3.91697 150.786C2.65697 150.074 1.05572 150.521 0.341715 151.781C-0.372285 153.043 0.0739641 154.644 1.33659 155.358C32.0701 172.72 62.8666 163.22 92.6499 154.03C122.226 144.9 150.187 136.272 178.501 151.521V239.219C178.501 240.671 179.674 241.844 181.126 241.844C182.575 241.844 183.751 240.671 183.751 239.219V149.969C183.751 149.024 183.239 148.15 182.414 147.683Z" fill="#343434"/>
<path d="M372.494 213.176C366.85 211.078 360.986 210.058 354.571 210.058C342.399 210.058 330.165 213.834 318.335 217.485C306.757 221.057 294.783 224.751 283.145 224.752C283.143 224.752 283.141 224.752 283.139 224.752C274.559 224.752 266.871 222.766 259.639 218.676C259.091 218.369 258.419 218.374 257.878 218.69C257.334 219.007 257 219.588 257 220.217V273.238C257 273.874 257.343 274.463 257.898 274.778C265.676 279.171 273.935 281.308 283.145 281.308C295.315 281.308 307.55 277.533 319.379 273.883C330.959 270.31 342.935 266.614 354.571 266.614C360.56 266.614 366.018 267.561 371.262 269.511C371.803 269.712 372.409 269.635 372.886 269.306C373.363 268.974 373.646 268.433 373.646 267.855V214.834C373.646 214.093 373.186 213.432 372.494 213.176ZM370.111 265.38C365.198 263.834 360.089 263.079 354.571 263.079C342.399 263.079 330.165 266.854 318.338 270.506C306.758 274.078 294.783 277.773 283.145 277.773C274.914 277.773 267.507 275.948 260.535 272.194V223.149C267.541 226.603 274.965 228.287 283.139 228.287C283.139 228.287 283.143 228.287 283.146 228.287C295.316 228.285 307.548 224.51 319.377 220.862C330.957 217.289 342.935 213.593 354.573 213.593C360.124 213.593 365.219 214.408 370.113 216.078V265.38H370.111Z" fill="#343434"/>
<path d="M343.599 219.828C343.599 220.802 344.394 221.467 345.366 221.332C349.564 220.751 353.763 220.509 357.957 220.767C358.282 222.027 358.931 223.179 359.811 224.144C360.689 225.111 361.799 225.892 363.042 226.415C363.042 234.808 363.042 243.203 363.042 251.597C361.801 251.713 360.689 252.233 359.811 253.028C358.931 253.825 358.281 254.893 357.957 256.114C353.76 255.856 349.564 256.103 345.366 256.681C344.394 256.814 343.601 257.74 343.599 258.71V258.712C343.599 259.686 344.394 260.347 345.366 260.214C350.078 259.56 354.788 259.336 359.502 259.765C360.479 259.856 361.271 259.168 361.271 258.189C361.271 257.215 361.669 256.379 362.31 255.833C362.952 255.285 363.835 255.032 364.809 255.229C365.787 255.425 366.577 254.831 366.577 253.855C366.577 244.432 366.577 235.01 366.577 225.588C366.577 224.614 365.787 223.623 364.809 223.427C363.834 223.229 362.952 222.686 362.31 221.951C361.669 221.214 361.271 220.282 361.271 219.307C361.271 218.333 360.477 217.435 359.502 217.349C354.788 216.919 350.076 217.145 345.366 217.799C344.394 217.934 343.601 218.856 343.599 219.828Z" fill="#343434"/>
<path d="M285.278 231.785C280.566 231.953 275.854 231.581 271.142 230.438C270.165 230.203 269.375 230.765 269.375 231.74C269.375 232.714 268.974 233.488 268.334 233.932C267.693 234.374 266.809 234.485 265.833 234.121C264.858 233.761 264.066 234.217 264.066 235.19C264.066 244.612 264.066 254.036 264.066 263.458C264.066 264.433 264.859 265.561 265.833 265.923C266.807 266.285 267.693 266.978 268.334 267.812C268.976 268.652 269.375 269.645 269.375 270.621C269.375 271.596 270.165 272.618 271.142 272.853C275.854 273.995 280.566 274.366 285.278 274.198C286.25 274.164 287.043 273.314 287.043 272.344C287.043 272.344 287.043 272.344 287.043 272.342C287.045 271.37 286.248 270.63 285.278 270.665C281.08 270.815 276.885 270.534 272.685 269.666C272.365 268.36 271.715 267.111 270.835 266.013C269.955 264.916 268.845 263.96 267.602 263.233C267.602 254.838 267.602 246.445 267.602 238.052C268.845 238.137 269.955 237.79 270.835 237.131C271.715 236.472 272.365 235.493 272.685 234.321C276.883 235.19 281.08 235.468 285.278 235.318C286.25 235.284 287.045 234.436 287.045 233.464C287.045 233.464 287.045 233.464 287.045 233.462C287.047 232.49 286.248 231.749 285.278 231.785Z" fill="#343434"/>
<path d="M320.963 224.644C318.955 224.644 316.877 224.98 314.784 225.645C303.001 229.409 294.115 240.65 294.115 251.795C294.115 256.54 295.702 260.867 298.59 263.981C301.5 267.118 305.548 268.848 309.987 268.848C311.905 268.848 313.881 268.526 315.857 267.897C327.449 264.209 336.531 252.436 336.531 241.099C336.53 231.41 330.128 224.644 320.963 224.644ZM314.786 264.527C313.156 265.048 311.543 265.311 309.989 265.311C306.545 265.311 303.416 263.984 301.184 261.575C298.904 259.119 297.649 255.646 297.651 251.795C297.651 242.281 305.65 232.274 315.86 229.013C317.603 228.46 319.321 228.177 320.964 228.177C328.161 228.177 332.997 233.37 332.998 241.099C332.997 250.823 324.828 261.333 314.786 264.527Z" fill="#343434"/>
<path d="M318.649 231.843C317.969 231.843 317.271 231.952 316.571 232.168C314.809 232.711 313.048 233.248 311.288 233.769C311.251 233.78 311.223 233.806 311.184 233.819C311.111 233.845 311.046 233.882 310.979 233.918C310.855 233.983 310.744 234.056 310.641 234.146C310.585 234.197 310.532 234.247 310.482 234.303C310.387 234.411 310.311 234.528 310.244 234.655C310.212 234.715 310.175 234.768 310.15 234.833C310.074 235.031 310.023 235.242 310.023 235.464V246.491C308.69 246.88 307.356 247.283 306.023 247.645C305.081 247.901 304.524 248.871 304.781 249.815C304.995 250.6 305.707 251.118 306.484 251.118C306.638 251.118 306.794 251.097 306.949 251.056C307.973 250.778 308.998 250.462 310.023 250.169V251.795C308.687 252.185 307.349 252.583 306.023 252.943C305.081 253.2 304.524 254.17 304.781 255.114C304.995 255.898 305.707 256.416 306.484 256.416C306.636 256.416 306.794 256.395 306.949 256.354C307.971 256.077 308.998 255.768 310.023 255.473V258.109C310.023 259.085 310.814 259.877 311.79 259.877C312.767 259.877 313.557 259.085 313.557 258.109V254.451C315.539 253.855 317.509 253.249 319.446 252.65L321.143 252.127C322.076 251.839 322.599 250.849 322.313 249.918C322.025 248.985 321.035 248.467 320.104 248.748L318.402 249.273C316.808 249.764 315.182 250.262 313.556 250.755V249.147C313.725 249.096 313.895 249.052 314.065 249C314.079 248.997 314.088 248.985 314.102 248.981C315.272 248.629 316.44 248.278 317.612 247.915C321.286 246.781 324.165 242.991 324.165 239.285V237.529C324.165 234.236 321.845 231.843 318.649 231.843ZM320.63 239.287C320.63 241.417 318.734 243.873 316.573 244.54C315.567 244.849 314.561 245.158 313.557 245.46V236.781C314.909 236.376 316.26 235.961 317.614 235.546C319.351 235.017 320.632 235.828 320.632 237.53V239.287H320.63Z" fill="#343434"/>
<path d="M379.817 209.519C359.123 197.828 338.388 204.226 318.339 210.414C298.11 216.658 279.004 222.554 259.638 211.608C258.789 211.129 257.711 211.43 257.231 212.278C256.75 213.128 257.05 214.206 257.9 214.687C278.593 226.376 299.327 219.98 319.38 213.793C339.293 207.646 358.119 201.837 377.182 212.103V271.149C377.182 272.126 377.972 272.916 378.949 272.916C379.924 272.916 380.716 272.126 380.716 271.149V211.059C380.716 210.422 380.372 209.834 379.817 209.519Z" fill="#343434"/>
<path d="M236.27 8.74671C231.42 6.94354 226.379 6.06702 220.865 6.06702C210.403 6.06702 199.888 9.31181 189.719 12.4503C179.767 15.5204 169.475 18.6953 159.472 18.6968C159.471 18.6968 159.469 18.6968 159.467 18.6968C152.092 18.6968 145.484 16.9893 139.268 13.4741C138.797 13.2098 138.22 13.2144 137.755 13.4863C137.287 13.7582 137 14.258 137 14.7988V60.3718C137 60.9187 137.295 61.4245 137.772 61.6949C144.457 65.4714 151.556 67.308 159.472 67.308C169.933 67.308 180.449 64.0632 190.617 60.9263C200.57 57.8547 210.863 54.6782 220.865 54.6782C226.013 54.6782 230.704 55.4925 235.211 57.168C235.676 57.3412 236.197 57.2744 236.607 56.9918C237.018 56.7062 237.261 56.2414 237.261 55.7446V10.1716C237.261 9.53512 236.866 8.96698 236.27 8.74671ZM234.222 53.6179C229.999 52.2887 225.608 51.64 220.865 51.64C210.403 51.64 199.888 54.8848 189.722 58.0233C179.769 61.0934 169.475 64.2698 159.472 64.2698C152.398 64.2698 146.031 62.7006 140.038 59.474V17.319C146.06 20.2873 152.442 21.735 159.467 21.735C159.467 21.735 159.471 21.735 159.474 21.735C169.934 21.7335 180.448 18.4887 190.615 15.3533C200.568 12.2817 210.863 9.10522 220.866 9.10522C225.638 9.10522 230.018 9.80552 234.224 11.2411V53.6179H234.222Z" fill="#343434"/>
<path d="M211.434 14.4643C211.434 15.3014 212.118 15.8726 212.953 15.7571C216.561 15.2573 220.171 15.0492 223.776 15.271C224.055 16.3541 224.613 17.3446 225.369 18.174C226.124 19.0049 227.078 19.6764 228.146 20.126C228.146 27.3402 228.146 34.556 228.146 41.7702C227.08 41.8704 226.124 42.317 225.369 43.0006C224.613 43.6858 224.054 44.6033 223.776 45.653C220.168 45.4312 216.561 45.6439 212.953 46.1406C212.118 46.2546 211.436 47.0506 211.434 47.8846V47.8861C211.434 48.7231 212.118 49.2912 212.953 49.1773C217.003 48.6152 221.052 48.4223 225.103 48.7915C225.943 48.8689 226.624 48.278 226.624 47.4364C226.624 46.5994 226.966 45.8809 227.517 45.4115C228.069 44.9405 228.828 44.7233 229.665 44.8919C230.505 45.0605 231.184 44.5501 231.184 43.7116C231.184 35.6117 231.184 27.5134 231.184 19.4151C231.184 18.5781 230.505 17.7259 229.665 17.5572C228.827 17.3871 228.069 16.9207 227.517 16.2888C226.966 15.6553 226.624 14.8548 226.624 14.0162C226.624 13.1792 225.942 12.4075 225.103 12.333C221.052 11.9639 217.002 12.1584 212.953 12.7204C212.118 12.8359 211.436 13.6288 211.434 14.4643Z" fill="#343434"/>
<path d="M161.306 24.7412C157.256 24.8855 153.206 24.5665 149.156 23.5836C148.316 23.3816 147.637 23.8647 147.637 24.7032C147.637 25.5403 147.292 26.2056 146.742 26.5869C146.191 26.9667 145.431 27.0624 144.592 26.7495C143.754 26.4396 143.073 26.8315 143.073 27.6685C143.073 35.7668 143.073 43.8667 143.073 51.965C143.073 52.8035 143.755 53.7727 144.592 54.0841C145.429 54.3956 146.191 54.991 146.742 55.7081C147.293 56.4296 147.637 57.2834 147.637 58.1219C147.637 58.9605 148.316 59.8385 149.156 60.0405C153.206 61.0219 157.256 61.3409 161.306 61.1966C162.141 61.1677 162.823 60.437 162.823 59.603C162.823 59.603 162.823 59.603 162.823 59.6015C162.825 58.766 162.14 58.1295 161.306 58.1599C157.698 58.289 154.091 58.0475 150.482 57.3016C150.207 56.179 149.648 55.105 148.892 54.1616C148.135 53.2183 147.181 52.3964 146.113 51.7721C146.113 44.5563 146.113 37.3421 146.113 30.1279C147.181 30.2009 148.135 29.9031 148.892 29.3365C149.648 28.7699 150.207 27.9283 150.482 26.9211C154.09 27.6685 157.698 27.907 161.306 27.7779C162.141 27.749 162.825 27.0199 162.825 26.1843C162.825 26.1843 162.825 26.1843 162.825 26.1828C162.826 25.3473 162.14 24.7108 161.306 24.7412Z" fill="#343434"/>
<path d="M191.978 18.604C190.252 18.604 188.466 18.8926 186.667 19.4638C176.539 22.6995 168.901 32.361 168.901 41.9404C168.901 46.0192 170.265 49.738 172.747 52.4146C175.249 55.111 178.728 56.5982 182.544 56.5982C184.192 56.5982 185.891 56.3218 187.589 55.781C197.553 52.6106 205.36 42.4919 205.36 32.7468C205.358 24.4191 199.856 18.604 191.978 18.604ZM186.669 52.884C185.268 53.3322 183.881 53.5585 182.546 53.5585C179.585 53.5585 176.896 52.4177 174.978 50.3471C173.018 48.2356 171.939 45.2505 171.941 41.9404C171.941 33.7631 178.816 25.162 187.592 22.3592C189.09 21.8837 190.567 21.6407 191.979 21.6407C198.165 21.6407 202.321 26.1038 202.323 32.7468C202.321 41.1049 195.3 50.139 186.669 52.884Z" fill="#343434"/>
<path d="M189.989 24.7913C189.404 24.7913 188.804 24.8854 188.203 25.0708C186.688 25.5371 185.175 25.9989 183.662 26.4471C183.63 26.4562 183.606 26.479 183.573 26.4896C183.51 26.5124 183.454 26.5443 183.396 26.5747C183.29 26.6309 183.194 26.6932 183.106 26.7706C183.058 26.8147 183.012 26.8572 182.97 26.9058C182.887 26.9985 182.822 27.0988 182.764 27.2081C182.737 27.2598 182.705 27.3054 182.684 27.3616C182.619 27.5317 182.575 27.7125 182.575 27.9039V37.3816C181.429 37.7158 180.282 38.0621 179.137 38.3735C178.327 38.5938 177.849 39.4278 178.069 40.239C178.253 40.9135 178.865 41.3586 179.533 41.3586C179.665 41.3586 179.799 41.3403 179.933 41.3054C180.812 41.0669 181.693 40.795 182.575 40.5428V41.9404C181.426 42.2761 180.276 42.6179 179.137 42.9278C178.327 43.1481 177.849 43.9821 178.069 44.7933C178.253 45.4677 178.865 45.9128 179.533 45.9128C179.664 45.9128 179.799 45.8946 179.933 45.8597C180.811 45.6212 181.693 45.3553 182.575 45.1016V47.3681C182.575 48.2067 183.255 48.8872 184.094 48.8872C184.934 48.8872 185.613 48.2067 185.613 47.3681V44.2236C187.316 43.7117 189.009 43.1906 190.674 42.6756L192.133 42.226C192.935 41.9784 193.384 41.1277 193.138 40.3271C192.891 39.525 192.04 39.0799 191.239 39.3215L189.777 39.7726C188.406 40.1949 187.009 40.6233 185.611 41.0472V39.6648C185.757 39.6207 185.903 39.5827 186.049 39.5387C186.061 39.5356 186.068 39.525 186.081 39.522C187.086 39.2197 188.09 38.9174 189.098 38.606C192.256 37.6307 194.73 34.3737 194.73 31.1882V29.6782C194.73 26.8481 192.736 24.7913 189.989 24.7913ZM191.692 31.1897C191.692 33.0202 190.062 35.1318 188.204 35.7045C187.34 35.9703 186.476 36.2362 185.613 36.4959V29.0356C186.775 28.6877 187.935 28.3308 189.099 27.9738C190.592 27.5196 191.694 28.2168 191.694 29.6797V31.1897H191.692Z" fill="#343434"/>
<path d="M242.565 5.60354C224.777 -4.44531 206.955 1.05383 189.723 6.3722C172.335 11.7392 155.914 16.8069 139.267 7.39911C138.538 6.98744 137.612 7.24568 137.198 7.97485C136.785 8.70554 137.043 9.63219 137.774 10.0454C155.56 20.0927 173.382 14.5951 190.617 9.27672C207.733 3.99329 223.915 -0.99999 240.3 7.82446V58.5761C240.3 59.4161 240.979 60.0952 241.819 60.0952C242.657 60.0952 243.338 59.4161 243.338 58.5761V6.92667C243.338 6.37979 243.042 5.87394 242.565 5.60354Z" fill="#343434"/>
<path d="M354.477 111.36C352.06 110.461 349.548 110.024 346.799 110.024C341.585 110.024 336.344 111.641 331.276 113.205C326.316 114.736 321.186 116.318 316.2 116.319C316.2 116.319 316.199 116.319 316.198 116.319C312.522 116.319 309.229 115.468 306.13 113.716C305.896 113.584 305.608 113.586 305.376 113.722C305.143 113.857 305 114.106 305 114.376V137.09C305 137.363 305.147 137.615 305.385 137.75C308.717 139.632 312.255 140.547 316.2 140.547C321.414 140.547 326.656 138.93 331.723 137.366C336.684 135.835 341.814 134.252 346.799 134.252C349.365 134.252 351.703 134.658 353.95 135.493C354.181 135.58 354.441 135.546 354.645 135.405C354.85 135.263 354.971 135.031 354.971 134.784V112.07C354.971 111.752 354.774 111.469 354.477 111.36ZM353.457 133.724C351.352 133.061 349.163 132.738 346.799 132.738C341.585 132.738 336.344 134.355 331.277 135.92C326.316 137.45 321.186 139.033 316.2 139.033C312.674 139.033 309.501 138.251 306.514 136.643V115.632C309.516 117.111 312.696 117.833 316.198 117.833C316.198 117.833 316.2 117.833 316.201 117.833C321.415 117.832 326.655 116.215 331.722 114.652C336.683 113.121 341.814 111.538 346.8 111.538C349.178 111.538 351.361 111.887 353.458 112.603V133.724H353.457Z" fill="#343434"/>
<path d="M342.099 114.209C342.099 114.626 342.44 114.911 342.856 114.854C344.654 114.604 346.453 114.501 348.25 114.611C348.389 115.151 348.667 115.645 349.044 116.058C349.42 116.472 349.896 116.807 350.428 117.031C350.428 120.627 350.428 124.223 350.428 127.819C349.897 127.869 349.42 128.091 349.044 128.432C348.667 128.774 348.388 129.231 348.25 129.754C346.452 129.643 344.654 129.749 342.856 129.997C342.44 130.054 342.1 130.451 342.099 130.866V130.867C342.099 131.284 342.44 131.567 342.856 131.511C344.875 131.23 346.892 131.134 348.912 131.318C349.33 131.357 349.67 131.062 349.67 130.643C349.67 130.226 349.84 129.868 350.115 129.634C350.39 129.399 350.768 129.291 351.185 129.375C351.604 129.459 351.942 129.204 351.942 128.786C351.942 124.749 351.942 120.713 351.942 116.677C351.942 116.26 351.604 115.835 351.185 115.751C350.767 115.666 350.39 115.434 350.115 115.119C349.84 114.803 349.67 114.404 349.67 113.986C349.67 113.569 349.33 113.184 348.912 113.147C346.892 112.963 344.874 113.06 342.856 113.34C342.44 113.398 342.1 113.793 342.099 114.209Z" fill="#343434"/>
<path d="M317.114 119.331C315.096 119.403 313.077 119.244 311.059 118.754C310.64 118.654 310.301 118.894 310.301 119.312C310.301 119.73 310.13 120.061 309.856 120.251C309.581 120.441 309.202 120.488 308.784 120.332C308.366 120.178 308.027 120.373 308.027 120.79C308.027 124.827 308.027 128.864 308.027 132.9C308.027 133.318 308.367 133.801 308.784 133.956C309.201 134.111 309.581 134.408 309.856 134.766C310.13 135.125 310.301 135.551 310.301 135.969C310.301 136.387 310.64 136.824 311.059 136.925C313.077 137.414 315.096 137.573 317.114 137.501C317.531 137.487 317.871 137.123 317.871 136.707C317.871 136.707 317.871 136.707 317.871 136.706C317.871 136.29 317.53 135.972 317.114 135.988C315.316 136.052 313.519 135.932 311.72 135.56C311.583 135 311.304 134.465 310.927 133.995C310.55 133.525 310.074 133.115 309.542 132.804C309.542 129.207 309.542 125.612 309.542 122.016C310.074 122.052 310.55 121.904 310.927 121.622C311.304 121.339 311.583 120.92 311.72 120.418C313.518 120.79 315.316 120.909 317.114 120.845C317.531 120.83 317.871 120.467 317.871 120.051C317.871 120.051 317.871 120.051 317.871 120.05C317.872 119.633 317.53 119.316 317.114 119.331Z" fill="#343434"/>
<path d="M332.402 116.272C331.541 116.272 330.651 116.416 329.755 116.701C324.707 118.314 320.9 123.129 320.9 127.904C320.9 129.937 321.58 131.79 322.817 133.124C324.064 134.468 325.798 135.209 327.7 135.209C328.521 135.209 329.368 135.071 330.214 134.802C335.18 133.222 339.071 128.178 339.071 123.321C339.07 119.171 336.328 116.272 332.402 116.272ZM329.755 133.358C329.057 133.581 328.366 133.694 327.7 133.694C326.225 133.694 324.885 133.126 323.928 132.094C322.952 131.041 322.414 129.553 322.415 127.904C322.415 123.828 325.842 119.541 330.216 118.144C330.962 117.907 331.698 117.786 332.402 117.786C335.485 117.786 337.557 120.01 337.558 123.321C337.557 127.487 334.057 131.99 329.755 133.358Z" fill="#343434"/>
<path d="M331.41 119.356C331.119 119.356 330.82 119.403 330.52 119.496C329.765 119.728 329.011 119.958 328.257 120.182C328.241 120.186 328.229 120.198 328.212 120.203C328.181 120.214 328.153 120.23 328.124 120.245C328.071 120.273 328.024 120.304 327.98 120.343C327.956 120.365 327.933 120.386 327.912 120.41C327.871 120.456 327.838 120.506 327.81 120.561C327.796 120.587 327.78 120.609 327.769 120.637C327.737 120.722 327.715 120.812 327.715 120.908V125.631C327.144 125.798 326.572 125.971 326.001 126.126C325.598 126.236 325.359 126.651 325.469 127.056C325.561 127.392 325.866 127.614 326.199 127.614C326.265 127.614 326.332 127.605 326.398 127.587C326.837 127.468 327.276 127.333 327.715 127.207V127.904C327.142 128.071 326.569 128.241 326.001 128.396C325.598 128.506 325.359 128.921 325.469 129.326C325.561 129.662 325.866 129.884 326.199 129.884C326.264 129.884 326.332 129.874 326.398 129.857C326.836 129.738 327.276 129.606 327.715 129.479V130.609C327.715 131.027 328.054 131.366 328.472 131.366C328.891 131.366 329.229 131.027 329.229 130.609V129.042C330.078 128.786 330.922 128.527 331.752 128.27L332.479 128.046C332.879 127.923 333.103 127.499 332.98 127.1C332.857 126.7 332.433 126.478 332.034 126.598L331.304 126.823C330.622 127.034 329.925 127.247 329.228 127.458V126.769C329.301 126.747 329.374 126.729 329.446 126.707C329.452 126.705 329.456 126.7 329.462 126.698C329.964 126.548 330.464 126.397 330.966 126.242C332.54 125.756 333.773 124.132 333.773 122.545V121.792C333.773 120.381 332.779 119.356 331.41 119.356ZM332.259 122.545C332.259 123.458 331.447 124.51 330.521 124.796C330.09 124.928 329.659 125.061 329.229 125.19V121.472C329.808 121.298 330.387 121.12 330.967 120.943C331.711 120.716 332.26 121.064 332.26 121.793V122.545H332.259Z" fill="#343434"/>
<path d="M357.615 109.793C348.75 104.784 339.867 107.525 331.278 110.176C322.612 112.851 314.427 115.377 306.131 110.688C305.767 110.483 305.305 110.611 305.1 110.975C304.894 111.339 305.022 111.801 305.387 112.007C314.251 117.014 323.134 114.274 331.724 111.624C340.255 108.99 348.32 106.502 356.486 110.9V136.195C356.486 136.614 356.825 136.952 357.244 136.952C357.662 136.952 358.001 136.614 358.001 136.195V110.452C358.001 110.18 357.853 109.928 357.615 109.793Z" fill="#343434"/>
<path d="M1128.54 153.114C1120.16 149.998 1111.45 148.484 1101.92 148.484C1083.84 148.484 1065.67 154.091 1048.1 159.514C1030.9 164.819 1013.12 170.305 995.832 170.308C995.829 170.308 995.826 170.308 995.824 170.308C983.079 170.308 971.661 167.357 960.919 161.283C960.105 160.826 959.108 160.834 958.305 161.304C957.496 161.774 957 162.638 957 163.572V242.322C957 243.267 957.509 244.141 958.334 244.609C969.886 251.134 982.153 254.308 995.832 254.308C1013.91 254.308 1032.08 248.701 1049.65 243.28C1066.85 237.973 1084.64 232.484 1101.92 232.484C1110.81 232.484 1118.92 233.891 1126.71 236.786C1127.51 237.085 1128.41 236.97 1129.12 236.482C1129.83 235.988 1130.25 235.185 1130.25 234.326V155.576C1130.25 154.477 1129.57 153.495 1128.54 153.114ZM1125 230.651C1117.7 228.355 1110.11 227.234 1101.92 227.234C1083.84 227.234 1065.67 232.841 1048.1 238.264C1030.9 243.569 1013.12 249.058 995.832 249.058C983.607 249.058 972.606 246.346 962.25 240.771V167.927C972.656 173.056 983.683 175.558 995.824 175.558C995.824 175.558 995.829 175.558 995.834 175.558C1013.91 175.555 1032.08 169.948 1049.65 164.53C1066.85 159.223 1084.64 153.734 1101.92 153.734C1110.17 153.734 1117.73 154.944 1125 157.424V230.651H1125Z" fill="#343434"/>
<path d="M1085.62 162.994C1085.62 164.441 1086.8 165.428 1088.25 165.228C1094.48 164.365 1100.72 164.005 1106.95 164.388C1107.43 166.26 1108.39 167.972 1109.7 169.405C1111.01 170.841 1112.65 172.001 1114.5 172.778C1114.5 185.244 1114.5 197.713 1114.5 210.179C1112.66 210.352 1111.01 211.124 1109.7 212.305C1108.39 213.489 1107.43 215.075 1106.95 216.888C1100.71 216.505 1094.48 216.873 1088.25 217.731C1086.8 217.928 1085.63 219.303 1085.62 220.745V220.747C1085.62 222.194 1086.8 223.175 1088.25 222.978C1095.25 222.007 1102.24 221.674 1109.24 222.312C1110.69 222.446 1111.87 221.424 1111.87 219.97C1111.87 218.524 1112.46 217.282 1113.41 216.471C1114.37 215.657 1115.68 215.282 1117.13 215.573C1118.58 215.865 1119.75 214.983 1119.75 213.534C1119.75 199.537 1119.75 185.543 1119.75 171.549C1119.75 170.103 1118.58 168.63 1117.13 168.339C1115.68 168.045 1114.37 167.239 1113.41 166.147C1112.46 165.052 1111.87 163.669 1111.87 162.22C1111.87 160.774 1110.69 159.44 1109.24 159.312C1102.24 158.674 1095.24 159.01 1088.25 159.981C1086.8 160.181 1085.63 161.551 1085.62 162.994Z" fill="#343434"/>
<path d="M999 180.753C992.002 181.002 985.004 180.451 978.005 178.752C976.554 178.403 975.38 179.238 975.38 180.687C975.38 182.133 974.784 183.283 973.834 183.942C972.881 184.598 971.569 184.764 970.12 184.223C968.671 183.687 967.495 184.365 967.495 185.811C967.495 199.805 967.495 213.802 967.495 227.795C967.495 229.244 968.673 230.919 970.12 231.457C971.566 231.995 972.881 233.024 973.834 234.263C974.787 235.51 975.38 236.986 975.38 238.435C975.38 239.884 976.554 241.401 978.005 241.75C985.004 243.446 992.002 243.997 999 243.748C1000.44 243.698 1001.62 242.435 1001.62 240.994C1001.62 240.994 1001.62 240.994 1001.62 240.991C1001.63 239.548 1000.44 238.448 999 238.5C992.766 238.723 986.534 238.306 980.297 237.017C979.822 235.077 978.856 233.221 977.549 231.591C976.241 229.961 974.593 228.541 972.747 227.462C972.747 214.993 972.747 202.527 972.747 190.061C974.593 190.187 976.241 189.672 977.549 188.693C978.856 187.714 979.822 186.26 980.297 184.52C986.531 185.811 992.766 186.223 999 186C1000.44 185.95 1001.63 184.69 1001.63 183.246C1001.63 183.246 1001.63 183.246 1001.63 183.244C1001.63 181.8 1000.44 180.7 999 180.753Z" fill="#343434"/>
<path d="M1052 170.148C1049.02 170.148 1045.93 170.646 1042.82 171.633C1025.32 177.225 1012.13 193.92 1012.13 210.473C1012.13 217.521 1014.48 223.947 1018.77 228.572C1023.09 233.232 1029.11 235.801 1035.7 235.801C1038.55 235.801 1041.48 235.324 1044.42 234.389C1061.64 228.911 1075.13 211.426 1075.13 194.586C1075.12 180.196 1065.61 170.148 1052 170.148ZM1042.83 229.383C1040.41 230.158 1038.01 230.549 1035.7 230.549C1030.59 230.549 1025.94 228.577 1022.63 225C1019.24 221.351 1017.38 216.193 1017.38 210.473C1017.38 196.342 1029.26 181.48 1044.42 176.637C1047.01 175.815 1049.56 175.395 1052 175.395C1062.69 175.395 1069.88 183.107 1069.88 194.586C1069.88 209.029 1057.74 224.64 1042.83 229.383Z" fill="#343434"/>
<path d="M1048.57 180.839C1047.55 180.839 1046.52 181.002 1045.48 181.322C1042.86 182.128 1040.25 182.926 1037.63 183.7C1037.58 183.716 1037.54 183.756 1037.48 183.774C1037.37 183.813 1037.27 183.868 1037.17 183.921C1036.99 184.018 1036.82 184.126 1036.67 184.26C1036.59 184.336 1036.51 184.409 1036.44 184.493C1036.29 184.653 1036.18 184.827 1036.08 185.016C1036.03 185.105 1035.98 185.184 1035.94 185.281C1035.83 185.575 1035.75 185.887 1035.75 186.218V202.595C1033.77 203.173 1031.79 203.771 1029.81 204.309C1028.41 204.69 1027.59 206.131 1027.97 207.533C1028.28 208.698 1029.34 209.467 1030.5 209.467C1030.73 209.467 1030.96 209.436 1031.19 209.376C1032.71 208.963 1034.23 208.494 1035.75 208.058V210.473C1033.77 211.053 1031.78 211.644 1029.81 212.179C1028.41 212.56 1027.59 214.001 1027.97 215.403C1028.28 216.568 1029.34 217.337 1030.5 217.337C1030.72 217.337 1030.96 217.306 1031.19 217.245C1032.71 216.833 1034.23 216.374 1035.75 215.935V219.852C1035.75 221.301 1036.93 222.477 1038.38 222.477C1039.83 222.477 1041 221.301 1041 219.852V214.418C1043.95 213.534 1046.87 212.633 1049.75 211.743L1052.27 210.966C1053.66 210.538 1054.43 209.068 1054.01 207.685C1053.58 206.299 1052.11 205.53 1050.73 205.947L1048.2 206.727C1045.83 207.457 1043.42 208.197 1041 208.929V206.541C1041.25 206.464 1041.5 206.399 1041.76 206.323C1041.78 206.317 1041.79 206.299 1041.81 206.294C1043.55 205.771 1045.28 205.249 1047.02 204.711C1052.48 203.026 1056.76 197.398 1056.76 191.893V189.284C1056.76 184.393 1053.31 180.839 1048.57 180.839ZM1051.51 191.896C1051.51 195.059 1048.69 198.708 1045.48 199.697C1043.99 200.157 1042.49 200.616 1041 201.065V188.173C1043.01 187.572 1045.02 186.955 1047.03 186.339C1049.61 185.554 1051.51 186.759 1051.51 189.286V191.896H1051.51Z" fill="#343434"/>
<path d="M1139.41 147.683C1108.68 130.319 1077.88 139.821 1048.1 149.011C1018.06 158.285 989.682 167.042 960.917 150.786C959.657 150.074 958.056 150.521 957.342 151.781C956.628 153.043 957.074 154.644 958.337 155.358C989.07 172.72 1019.87 163.22 1049.65 154.03C1079.23 144.9 1107.19 136.272 1135.5 151.521V239.219C1135.5 240.671 1136.67 241.844 1138.13 241.844C1139.57 241.844 1140.75 240.671 1140.75 239.219V149.969C1140.75 149.024 1140.24 148.15 1139.41 147.683Z" fill="#343434"/>
<path d="M1329.49 213.176C1323.85 211.078 1317.99 210.058 1311.57 210.058C1299.4 210.058 1287.17 213.834 1275.33 217.485C1263.76 221.057 1251.78 224.751 1240.14 224.752C1240.14 224.752 1240.14 224.752 1240.14 224.752C1231.56 224.752 1223.87 222.766 1216.64 218.676C1216.09 218.369 1215.42 218.374 1214.88 218.69C1214.33 219.007 1214 219.588 1214 220.217V273.238C1214 273.874 1214.34 274.463 1214.9 274.778C1222.68 279.171 1230.93 281.308 1240.14 281.308C1252.31 281.308 1264.55 277.533 1276.38 273.883C1287.96 270.31 1299.93 266.614 1311.57 266.614C1317.56 266.614 1323.02 267.561 1328.26 269.511C1328.8 269.712 1329.41 269.635 1329.89 269.306C1330.36 268.974 1330.65 268.433 1330.65 267.855V214.834C1330.65 214.093 1330.19 213.432 1329.49 213.176ZM1327.11 265.38C1322.2 263.834 1317.09 263.079 1311.57 263.079C1299.4 263.079 1287.17 266.854 1275.34 270.506C1263.76 274.078 1251.78 277.773 1240.14 277.773C1231.91 277.773 1224.51 275.948 1217.53 272.194V223.149C1224.54 226.603 1231.97 228.287 1240.14 228.287C1240.14 228.287 1240.14 228.287 1240.15 228.287C1252.32 228.285 1264.55 224.51 1276.38 220.862C1287.96 217.289 1299.93 213.593 1311.57 213.593C1317.12 213.593 1322.22 214.408 1327.11 216.078V265.38H1327.11Z" fill="#343434"/>
<path d="M1300.6 219.828C1300.6 220.802 1301.39 221.467 1302.37 221.332C1306.56 220.751 1310.76 220.509 1314.96 220.767C1315.28 222.027 1315.93 223.179 1316.81 224.144C1317.69 225.111 1318.8 225.892 1320.04 226.415C1320.04 234.808 1320.04 243.203 1320.04 251.597C1318.8 251.713 1317.69 252.233 1316.81 253.028C1315.93 253.825 1315.28 254.893 1314.96 256.114C1310.76 255.856 1306.56 256.103 1302.37 256.681C1301.39 256.814 1300.6 257.74 1300.6 258.71V258.712C1300.6 259.686 1301.39 260.347 1302.37 260.214C1307.08 259.56 1311.79 259.336 1316.5 259.765C1317.48 259.856 1318.27 259.168 1318.27 258.189C1318.27 257.215 1318.67 256.379 1319.31 255.833C1319.95 255.285 1320.84 255.032 1321.81 255.229C1322.79 255.425 1323.58 254.831 1323.58 253.855C1323.58 244.432 1323.58 235.01 1323.58 225.588C1323.58 224.614 1322.79 223.623 1321.81 223.427C1320.83 223.229 1319.95 222.686 1319.31 221.951C1318.67 221.214 1318.27 220.282 1318.27 219.307C1318.27 218.333 1317.48 217.435 1316.5 217.349C1311.79 216.919 1307.08 217.145 1302.37 217.799C1301.39 217.934 1300.6 218.856 1300.6 219.828Z" fill="#343434"/>
<path d="M1242.28 231.785C1237.57 231.953 1232.85 231.581 1228.14 230.438C1227.17 230.203 1226.38 230.765 1226.38 231.74C1226.38 232.714 1225.97 233.488 1225.33 233.932C1224.69 234.374 1223.81 234.485 1222.83 234.121C1221.86 233.761 1221.07 234.217 1221.07 235.19C1221.07 244.612 1221.07 254.036 1221.07 263.458C1221.07 264.433 1221.86 265.561 1222.83 265.923C1223.81 266.285 1224.69 266.978 1225.33 267.812C1225.98 268.652 1226.38 269.645 1226.38 270.621C1226.38 271.596 1227.17 272.618 1228.14 272.853C1232.85 273.995 1237.57 274.366 1242.28 274.198C1243.25 274.164 1244.04 273.314 1244.04 272.344C1244.04 272.344 1244.04 272.344 1244.04 272.342C1244.05 271.37 1243.25 270.63 1242.28 270.665C1238.08 270.815 1233.88 270.534 1229.69 269.666C1229.37 268.36 1228.72 267.111 1227.83 266.013C1226.95 264.916 1225.84 263.96 1224.6 263.233C1224.6 254.838 1224.6 246.445 1224.6 238.052C1225.84 238.137 1226.95 237.79 1227.83 237.131C1228.72 236.472 1229.37 235.493 1229.69 234.321C1233.88 235.19 1238.08 235.468 1242.28 235.318C1243.25 235.284 1244.05 234.436 1244.05 233.464C1244.05 233.464 1244.05 233.464 1244.05 233.462C1244.05 232.49 1243.25 231.749 1242.28 231.785Z" fill="#343434"/>
<path d="M1277.96 224.644C1275.95 224.644 1273.88 224.98 1271.78 225.645C1260 229.409 1251.11 240.65 1251.11 251.795C1251.11 256.54 1252.7 260.867 1255.59 263.981C1258.5 267.118 1262.55 268.848 1266.99 268.848C1268.9 268.848 1270.88 268.526 1272.86 267.897C1284.45 264.209 1293.53 252.436 1293.53 241.099C1293.53 231.41 1287.13 224.644 1277.96 224.644ZM1271.79 264.527C1270.16 265.048 1268.54 265.311 1266.99 265.311C1263.54 265.311 1260.42 263.984 1258.18 261.575C1255.9 259.119 1254.65 255.646 1254.65 251.795C1254.65 242.281 1262.65 232.274 1272.86 229.013C1274.6 228.46 1276.32 228.177 1277.96 228.177C1285.16 228.177 1290 233.37 1290 241.099C1290 250.823 1281.83 261.333 1271.79 264.527Z" fill="#343434"/>
<path d="M1275.65 231.843C1274.97 231.843 1274.27 231.952 1273.57 232.168C1271.81 232.711 1270.05 233.248 1268.29 233.769C1268.25 233.78 1268.22 233.806 1268.18 233.819C1268.11 233.845 1268.05 233.882 1267.98 233.918C1267.86 233.983 1267.74 234.056 1267.64 234.146C1267.58 234.197 1267.53 234.247 1267.48 234.303C1267.39 234.411 1267.31 234.528 1267.24 234.655C1267.21 234.715 1267.17 234.768 1267.15 234.833C1267.07 235.031 1267.02 235.242 1267.02 235.464V246.491C1265.69 246.88 1264.36 247.283 1263.02 247.645C1262.08 247.901 1261.52 248.871 1261.78 249.815C1261.99 250.6 1262.71 251.118 1263.48 251.118C1263.64 251.118 1263.79 251.097 1263.95 251.056C1264.97 250.778 1266 250.462 1267.02 250.169V251.795C1265.69 252.185 1264.35 252.583 1263.02 252.943C1262.08 253.2 1261.52 254.17 1261.78 255.114C1261.99 255.898 1262.71 256.416 1263.48 256.416C1263.64 256.416 1263.79 256.395 1263.95 256.354C1264.97 256.077 1266 255.768 1267.02 255.473V258.109C1267.02 259.085 1267.81 259.877 1268.79 259.877C1269.77 259.877 1270.56 259.085 1270.56 258.109V254.451C1272.54 253.855 1274.51 253.249 1276.45 252.65L1278.14 252.127C1279.08 251.839 1279.6 250.849 1279.31 249.918C1279.02 248.985 1278.04 248.467 1277.1 248.748L1275.4 249.273C1273.81 249.764 1272.18 250.262 1270.56 250.755V249.147C1270.73 249.096 1270.89 249.052 1271.06 249C1271.08 248.997 1271.09 248.985 1271.1 248.981C1272.27 248.629 1273.44 248.278 1274.61 247.915C1278.29 246.781 1281.17 242.991 1281.17 239.285V237.529C1281.17 234.236 1278.84 231.843 1275.65 231.843ZM1277.63 239.287C1277.63 241.417 1275.73 243.873 1273.57 244.54C1272.57 244.849 1271.56 245.158 1270.56 245.46V236.781C1271.91 236.376 1273.26 235.961 1274.61 235.546C1276.35 235.017 1277.63 235.828 1277.63 237.53V239.287H1277.63Z" fill="#343434"/>
<path d="M1336.82 209.519C1316.12 197.828 1295.39 204.226 1275.34 210.414C1255.11 216.658 1236 222.554 1216.64 211.608C1215.79 211.129 1214.71 211.43 1214.23 212.278C1213.75 213.128 1214.05 214.206 1214.9 214.687C1235.59 226.376 1256.33 219.98 1276.38 213.793C1296.29 207.646 1315.12 201.837 1334.18 212.103V271.149C1334.18 272.126 1334.97 272.916 1335.95 272.916C1336.92 272.916 1337.72 272.126 1337.72 271.149V211.059C1337.72 210.422 1337.37 209.834 1336.82 209.519Z" fill="#343434"/>
<path d="M1193.27 8.74671C1188.42 6.94354 1183.38 6.06702 1177.86 6.06702C1167.4 6.06702 1156.89 9.31181 1146.72 12.4503C1136.77 15.5204 1126.48 18.6953 1116.47 18.6968C1116.47 18.6968 1116.47 18.6968 1116.47 18.6968C1109.09 18.6968 1102.48 16.9893 1096.27 13.4741C1095.8 13.2098 1095.22 13.2144 1094.75 13.4863C1094.29 13.7582 1094 14.258 1094 14.7988V60.3718C1094 60.9187 1094.29 61.4245 1094.77 61.6949C1101.46 65.4714 1108.56 67.308 1116.47 67.308C1126.93 67.308 1137.45 64.0632 1147.62 60.9263C1157.57 57.8547 1167.86 54.6782 1177.86 54.6782C1183.01 54.6782 1187.7 55.4925 1192.21 57.168C1192.68 57.3412 1193.2 57.2744 1193.61 56.9918C1194.02 56.7062 1194.26 56.2414 1194.26 55.7446V10.1716C1194.26 9.53512 1193.87 8.96698 1193.27 8.74671ZM1191.22 53.6179C1187 52.2887 1182.61 51.64 1177.86 51.64C1167.4 51.64 1156.89 54.8848 1146.72 58.0233C1136.77 61.0934 1126.48 64.2698 1116.47 64.2698C1109.4 64.2698 1103.03 62.7006 1097.04 59.474V17.319C1103.06 20.2873 1109.44 21.735 1116.47 21.735C1116.47 21.735 1116.47 21.735 1116.47 21.735C1126.93 21.7335 1137.45 18.4887 1147.62 15.3533C1157.57 12.2817 1167.86 9.10522 1177.87 9.10522C1182.64 9.10522 1187.02 9.80552 1191.22 11.2411V53.6179H1191.22Z" fill="#343434"/>
<path d="M1168.43 14.4643C1168.43 15.3014 1169.12 15.8726 1169.95 15.7571C1173.56 15.2573 1177.17 15.0492 1180.78 15.271C1181.06 16.3541 1181.61 17.3446 1182.37 18.174C1183.12 19.0049 1184.08 19.6764 1185.15 20.126C1185.15 27.3402 1185.15 34.556 1185.15 41.7702C1184.08 41.8704 1183.12 42.317 1182.37 43.0006C1181.61 43.6858 1181.05 44.6033 1180.78 45.653C1177.17 45.4312 1173.56 45.6439 1169.95 46.1406C1169.12 46.2546 1168.44 47.0506 1168.43 47.8846V47.8861C1168.43 48.7231 1169.12 49.2912 1169.95 49.1773C1174 48.6152 1178.05 48.4223 1182.1 48.7915C1182.94 48.8689 1183.62 48.278 1183.62 47.4364C1183.62 46.5994 1183.97 45.8809 1184.52 45.4115C1185.07 44.9405 1185.83 44.7233 1186.67 44.8919C1187.51 45.0605 1188.18 44.5501 1188.18 43.7116C1188.18 35.6117 1188.18 27.5134 1188.18 19.4151C1188.18 18.5781 1187.51 17.7259 1186.67 17.5572C1185.83 17.3871 1185.07 16.9207 1184.52 16.2888C1183.97 15.6553 1183.62 14.8548 1183.62 14.0162C1183.62 13.1792 1182.94 12.4075 1182.1 12.333C1178.05 11.9639 1174 12.1584 1169.95 12.7204C1169.12 12.8359 1168.44 13.6288 1168.43 14.4643Z" fill="#343434"/>
<path d="M1118.31 24.7412C1114.26 24.8855 1110.21 24.5665 1106.16 23.5836C1105.32 23.3816 1104.64 23.8647 1104.64 24.7032C1104.64 25.5403 1104.29 26.2056 1103.74 26.5869C1103.19 26.9667 1102.43 27.0624 1101.59 26.7495C1100.75 26.4396 1100.07 26.8315 1100.07 27.6685C1100.07 35.7668 1100.07 43.8667 1100.07 51.965C1100.07 52.8035 1100.76 53.7727 1101.59 54.0841C1102.43 54.3956 1103.19 54.991 1103.74 55.7081C1104.29 56.4296 1104.64 57.2834 1104.64 58.1219C1104.64 58.9605 1105.32 59.8385 1106.16 60.0405C1110.21 61.0219 1114.26 61.3409 1118.31 61.1966C1119.14 61.1677 1119.82 60.437 1119.82 59.603C1119.82 59.603 1119.82 59.603 1119.82 59.6015C1119.82 58.766 1119.14 58.1295 1118.31 58.1599C1114.7 58.289 1111.09 58.0475 1107.48 57.3016C1107.21 56.179 1106.65 55.105 1105.89 54.1616C1105.14 53.2183 1104.18 52.3964 1103.11 51.7721C1103.11 44.5563 1103.11 37.3421 1103.11 30.1279C1104.18 30.2009 1105.14 29.9031 1105.89 29.3365C1106.65 28.7699 1107.21 27.9283 1107.48 26.9211C1111.09 27.6685 1114.7 27.907 1118.31 27.7779C1119.14 27.749 1119.82 27.0199 1119.82 26.1843C1119.82 26.1843 1119.82 26.1843 1119.82 26.1828C1119.83 25.3473 1119.14 24.7108 1118.31 24.7412Z" fill="#343434"/>
<path d="M1148.98 18.604C1147.25 18.604 1145.47 18.8926 1143.67 19.4638C1133.54 22.6995 1125.9 32.361 1125.9 41.9404C1125.9 46.0192 1127.27 49.738 1129.75 52.4146C1132.25 55.111 1135.73 56.5982 1139.54 56.5982C1141.19 56.5982 1142.89 56.3218 1144.59 55.781C1154.55 52.6106 1162.36 42.4919 1162.36 32.7468C1162.36 24.4191 1156.86 18.604 1148.98 18.604ZM1143.67 52.884C1142.27 53.3322 1140.88 53.5585 1139.55 53.5585C1136.58 53.5585 1133.9 52.4177 1131.98 50.3471C1130.02 48.2356 1128.94 45.2505 1128.94 41.9404C1128.94 33.7631 1135.82 25.162 1144.59 22.3592C1146.09 21.8837 1147.57 21.6407 1148.98 21.6407C1155.17 21.6407 1159.32 26.1038 1159.32 32.7468C1159.32 41.1049 1152.3 50.139 1143.67 52.884Z" fill="#343434"/>
<path d="M1146.99 24.7913C1146.4 24.7913 1145.8 24.8854 1145.2 25.0708C1143.69 25.5371 1142.18 25.9989 1140.66 26.4471C1140.63 26.4562 1140.61 26.479 1140.57 26.4896C1140.51 26.5124 1140.45 26.5443 1140.4 26.5747C1140.29 26.6309 1140.19 26.6932 1140.11 26.7706C1140.06 26.8147 1140.01 26.8572 1139.97 26.9058C1139.89 26.9985 1139.82 27.0988 1139.76 27.2081C1139.74 27.2598 1139.71 27.3054 1139.68 27.3616C1139.62 27.5317 1139.57 27.7125 1139.57 27.9039V37.3816C1138.43 37.7158 1137.28 38.0621 1136.14 38.3735C1135.33 38.5938 1134.85 39.4278 1135.07 40.239C1135.25 40.9135 1135.86 41.3586 1136.53 41.3586C1136.67 41.3586 1136.8 41.3403 1136.93 41.3054C1137.81 41.0669 1138.69 40.795 1139.57 40.5428V41.9404C1138.43 42.2761 1137.28 42.6179 1136.14 42.9278C1135.33 43.1481 1134.85 43.9821 1135.07 44.7933C1135.25 45.4677 1135.86 45.9128 1136.53 45.9128C1136.66 45.9128 1136.8 45.8946 1136.93 45.8597C1137.81 45.6212 1138.69 45.3553 1139.57 45.1016V47.3681C1139.57 48.2067 1140.26 48.8872 1141.09 48.8872C1141.93 48.8872 1142.61 48.2067 1142.61 47.3681V44.2236C1144.32 43.7117 1146.01 43.1906 1147.67 42.6756L1149.13 42.226C1149.93 41.9784 1150.38 41.1277 1150.14 40.3271C1149.89 39.525 1149.04 39.0799 1148.24 39.3215L1146.78 39.7726C1145.41 40.1949 1144.01 40.6233 1142.61 41.0472V39.6648C1142.76 39.6207 1142.9 39.5827 1143.05 39.5387C1143.06 39.5356 1143.07 39.525 1143.08 39.522C1144.09 39.2197 1145.09 38.9174 1146.1 38.606C1149.26 37.6307 1151.73 34.3737 1151.73 31.1882V29.6782C1151.73 26.8481 1149.74 24.7913 1146.99 24.7913ZM1148.69 31.1897C1148.69 33.0202 1147.06 35.1318 1145.2 35.7045C1144.34 35.9703 1143.48 36.2362 1142.61 36.4959V29.0356C1143.77 28.6877 1144.94 28.3308 1146.1 27.9738C1147.59 27.5196 1148.69 28.2168 1148.69 29.6797V31.1897H1148.69Z" fill="#343434"/>
<path d="M1199.56 5.60354C1181.78 -4.44531 1163.96 1.05383 1146.72 6.3722C1129.34 11.7392 1112.91 16.8069 1096.27 7.39911C1095.54 6.98744 1094.61 7.24568 1094.2 7.97485C1093.79 8.70554 1094.04 9.63219 1094.77 10.0454C1112.56 20.0927 1130.38 14.5951 1147.62 9.27672C1164.73 3.99329 1180.91 -0.99999 1197.3 7.82446V58.5761C1197.3 59.4161 1197.98 60.0952 1198.82 60.0952C1199.66 60.0952 1200.34 59.4161 1200.34 58.5761V6.92667C1200.34 6.37979 1200.04 5.87394 1199.56 5.60354Z" fill="#343434"/>
<path d="M1311.48 111.36C1309.06 110.461 1306.55 110.024 1303.8 110.024C1298.58 110.024 1293.34 111.641 1288.28 113.205C1283.32 114.736 1278.19 116.318 1273.2 116.319C1273.2 116.319 1273.2 116.319 1273.2 116.319C1269.52 116.319 1266.23 115.468 1263.13 113.716C1262.9 113.584 1262.61 113.586 1262.38 113.722C1262.14 113.857 1262 114.106 1262 114.376V137.09C1262 137.363 1262.15 137.615 1262.38 137.75C1265.72 139.632 1269.25 140.547 1273.2 140.547C1278.41 140.547 1283.66 138.93 1288.72 137.366C1293.68 135.835 1298.81 134.252 1303.8 134.252C1306.37 134.252 1308.7 134.658 1310.95 135.493C1311.18 135.58 1311.44 135.546 1311.65 135.405C1311.85 135.263 1311.97 135.031 1311.97 134.784V112.07C1311.97 111.752 1311.77 111.469 1311.48 111.36ZM1310.46 133.724C1308.35 133.061 1306.16 132.738 1303.8 132.738C1298.58 132.738 1293.34 134.355 1288.28 135.92C1283.32 137.45 1278.19 139.033 1273.2 139.033C1269.67 139.033 1266.5 138.251 1263.51 136.643V115.632C1266.52 117.111 1269.7 117.833 1273.2 117.833C1273.2 117.833 1273.2 117.833 1273.2 117.833C1278.41 117.832 1283.65 116.215 1288.72 114.652C1293.68 113.121 1298.81 111.538 1303.8 111.538C1306.18 111.538 1308.36 111.887 1310.46 112.603V133.724H1310.46Z" fill="#343434"/>
<path d="M1299.1 114.209C1299.1 114.626 1299.44 114.911 1299.86 114.854C1301.65 114.604 1303.45 114.501 1305.25 114.611C1305.39 115.151 1305.67 115.645 1306.04 116.058C1306.42 116.472 1306.9 116.807 1307.43 117.031C1307.43 120.627 1307.43 124.223 1307.43 127.819C1306.9 127.869 1306.42 128.091 1306.04 128.432C1305.67 128.774 1305.39 129.231 1305.25 129.754C1303.45 129.643 1301.65 129.749 1299.86 129.997C1299.44 130.054 1299.1 130.451 1299.1 130.866V130.867C1299.1 131.284 1299.44 131.567 1299.86 131.511C1301.87 131.23 1303.89 131.134 1305.91 131.318C1306.33 131.357 1306.67 131.062 1306.67 130.643C1306.67 130.226 1306.84 129.868 1307.11 129.634C1307.39 129.399 1307.77 129.291 1308.19 129.375C1308.6 129.459 1308.94 129.204 1308.94 128.786C1308.94 124.749 1308.94 120.713 1308.94 116.677C1308.94 116.26 1308.6 115.835 1308.19 115.751C1307.77 115.666 1307.39 115.434 1307.11 115.119C1306.84 114.803 1306.67 114.404 1306.67 113.986C1306.67 113.569 1306.33 113.184 1305.91 113.147C1303.89 112.963 1301.87 113.06 1299.86 113.34C1299.44 113.398 1299.1 113.793 1299.1 114.209Z" fill="#343434"/>
<path d="M1274.11 119.331C1272.1 119.403 1270.08 119.244 1268.06 118.754C1267.64 118.654 1267.3 118.894 1267.3 119.312C1267.3 119.73 1267.13 120.061 1266.86 120.251C1266.58 120.441 1266.2 120.488 1265.78 120.332C1265.37 120.178 1265.03 120.373 1265.03 120.79C1265.03 124.827 1265.03 128.864 1265.03 132.9C1265.03 133.318 1265.37 133.801 1265.78 133.956C1266.2 134.111 1266.58 134.408 1266.86 134.766C1267.13 135.125 1267.3 135.551 1267.3 135.969C1267.3 136.387 1267.64 136.824 1268.06 136.925C1270.08 137.414 1272.1 137.573 1274.11 137.501C1274.53 137.487 1274.87 137.123 1274.87 136.707C1274.87 136.707 1274.87 136.707 1274.87 136.706C1274.87 136.29 1274.53 135.972 1274.11 135.988C1272.32 136.052 1270.52 135.932 1268.72 135.56C1268.58 135 1268.3 134.465 1267.93 133.995C1267.55 133.525 1267.07 133.115 1266.54 132.804C1266.54 129.207 1266.54 125.612 1266.54 122.016C1267.07 122.052 1267.55 121.904 1267.93 121.622C1268.3 121.339 1268.58 120.92 1268.72 120.418C1270.52 120.79 1272.32 120.909 1274.11 120.845C1274.53 120.83 1274.87 120.467 1274.87 120.051C1274.87 120.051 1274.87 120.051 1274.87 120.05C1274.87 119.633 1274.53 119.316 1274.11 119.331Z" fill="#343434"/>
<path d="M1289.4 116.272C1288.54 116.272 1287.65 116.416 1286.75 116.701C1281.71 118.314 1277.9 123.129 1277.9 127.904C1277.9 129.937 1278.58 131.79 1279.82 133.124C1281.06 134.468 1282.8 135.209 1284.7 135.209C1285.52 135.209 1286.37 135.071 1287.21 134.802C1292.18 133.222 1296.07 128.178 1296.07 123.321C1296.07 119.171 1293.33 116.272 1289.4 116.272ZM1286.76 133.358C1286.06 133.581 1285.37 133.694 1284.7 133.694C1283.22 133.694 1281.88 133.126 1280.93 132.094C1279.95 131.041 1279.41 129.553 1279.41 127.904C1279.41 123.828 1282.84 119.541 1287.22 118.144C1287.96 117.907 1288.7 117.786 1289.4 117.786C1292.49 117.786 1294.56 120.01 1294.56 123.321C1294.56 127.487 1291.06 131.99 1286.76 133.358Z" fill="#343434"/>
<path d="M1288.41 119.356C1288.12 119.356 1287.82 119.403 1287.52 119.496C1286.77 119.728 1286.01 119.958 1285.26 120.182C1285.24 120.186 1285.23 120.198 1285.21 120.203C1285.18 120.214 1285.15 120.23 1285.12 120.245C1285.07 120.273 1285.02 120.304 1284.98 120.343C1284.96 120.365 1284.93 120.386 1284.91 120.41C1284.87 120.456 1284.84 120.506 1284.81 120.561C1284.8 120.587 1284.78 120.609 1284.77 120.637C1284.74 120.722 1284.71 120.812 1284.71 120.908V125.631C1284.14 125.798 1283.57 125.971 1283 126.126C1282.6 126.236 1282.36 126.651 1282.47 127.056C1282.56 127.392 1282.87 127.614 1283.2 127.614C1283.26 127.614 1283.33 127.605 1283.4 127.587C1283.84 127.468 1284.28 127.333 1284.71 127.207V127.904C1284.14 128.071 1283.57 128.241 1283 128.396C1282.6 128.506 1282.36 128.921 1282.47 129.326C1282.56 129.662 1282.87 129.884 1283.2 129.884C1283.26 129.884 1283.33 129.874 1283.4 129.857C1283.84 129.738 1284.28 129.606 1284.71 129.479V130.609C1284.71 131.027 1285.05 131.366 1285.47 131.366C1285.89 131.366 1286.23 131.027 1286.23 130.609V129.042C1287.08 128.786 1287.92 128.527 1288.75 128.27L1289.48 128.046C1289.88 127.923 1290.1 127.499 1289.98 127.1C1289.86 126.7 1289.43 126.478 1289.03 126.598L1288.3 126.823C1287.62 127.034 1286.92 127.247 1286.23 127.458V126.769C1286.3 126.747 1286.37 126.729 1286.45 126.707C1286.45 126.705 1286.46 126.7 1286.46 126.698C1286.96 126.548 1287.46 126.397 1287.97 126.242C1289.54 125.756 1290.77 124.132 1290.77 122.545V121.792C1290.77 120.381 1289.78 119.356 1288.41 119.356ZM1289.26 122.545C1289.26 123.458 1288.45 124.51 1287.52 124.796C1287.09 124.928 1286.66 125.061 1286.23 125.19V121.472C1286.81 121.298 1287.39 121.12 1287.97 120.943C1288.71 120.716 1289.26 121.064 1289.26 121.793V122.545H1289.26Z" fill="#343434"/>
<path d="M1314.62 109.793C1305.75 104.784 1296.87 107.525 1288.28 110.176C1279.61 112.851 1271.43 115.377 1263.13 110.688C1262.77 110.483 1262.31 110.611 1262.1 110.975C1261.89 111.339 1262.02 111.801 1262.39 112.007C1271.25 117.014 1280.13 114.274 1288.72 111.624C1297.25 108.99 1305.32 106.502 1313.49 110.9V136.195C1313.49 136.614 1313.82 136.952 1314.24 136.952C1314.66 136.952 1315 136.614 1315 136.195V110.452C1315 110.18 1314.85 109.928 1314.62 109.793Z" fill="#343434"/>
</svg>
